<?xml version="1.0" encoding="iso-8859-1"?>
<!-- Generator: Adobe Illustrator 19.0.0, SVG Export Plug-In . SVG Version: 6.00 Build 0)  -->
<svg xmlns="http://www.w3.org/2000/svg" xmlns:xlink="http://www.w3.org/1999/xlink" version="1.1" id="Layer_1" x="0px" y="0px" viewBox="0 0 512 512" style="enable-background:new 0 0 512 512;" xml:space="preserve" width="512px" height="512px">
<g>
	<g>
		<polygon points="0,309.196 0,409.425 102.835,451.159 102.835,351.064   " fill="#07ae96"/>
	</g>
</g>
<g>
	<g>
		<polygon points="136.336,351.136 136.336,451.338 239.25,409.572 239.25,309.322   " fill="#07ae96"/>
	</g>
</g>
<g>
	<g>
		<polygon points="119.653,252.584 29.867,285.185 119.671,321.747 209.407,285.287   " fill="#07ae96"/>
	</g>
</g>
<g>
	<g>
		<polygon points="272.75,309.196 272.75,409.425 375.585,451.159 375.585,351.064   " fill="#07ae96"/>
	</g>
</g>
<g>
	<g>
		<polygon points="409.086,351.136 409.086,451.338 512,409.572 512,309.322   " fill="#07ae96"/>
	</g>
</g>
<g>
	<g>
		<polygon points="392.405,252.584 302.617,285.185 392.422,321.747 482.158,285.287   " fill="#07ae96"/>
	</g>
</g>
<g>
	<g>
		<polygon points="136.375,117.274 136.375,220.854 239.209,259.237 239.209,159.143   " fill="#07ae96"/>
	</g>
</g>
<g>
	<g>
		<polygon points="272.71,159.215 272.71,259.415 375.625,221 375.625,117.401   " fill="#07ae96"/>
	</g>
</g>
<g>
	<g>
		<polygon points="256.029,60.662 166.242,93.263 256.046,129.826 345.783,93.365   " fill="#07ae96"/>
	</g>
</g>
<g>
</g>
<g>
</g>
<g>
</g>
<g>
</g>
<g>
</g>
<g>
</g>
<g>
</g>
<g>
</g>
<g>
</g>
<g>
</g>
<g>
</g>
<g>
</g>
<g>
</g>
<g>
</g>
<g>
</g>
</svg>
