<?xml version="1.0" encoding="utf-8"?>
<!-- Generator: Adobe Illustrator 16.0.0, SVG Export Plug-In . SVG Version: 6.00 Build 0)  -->
<!DOCTYPE svg PUBLIC "-//W3C//DTD SVG 1.1//EN" "http://www.w3.org/Graphics/SVG/1.1/DTD/svg11.dtd">
<svg version="1.1" id="Layer_1" xmlns="http://www.w3.org/2000/svg" xmlns:xlink="http://www.w3.org/1999/xlink" x="0px" y="0px"
	 width="512px" height="512px" viewBox="0 0 512 512" enable-background="new 0 0 512 512" xml:space="preserve">
<g>
	<path fill-rule="evenodd" clip-rule="evenodd" fill="#07AE96" d="M259.14,408.278c-29.632-10.385-56.564-19.555-83.19-29.528
		c-2.907-1.093-5.576-6.708-5.817-10.393c-1.607-24.125-2.502-48.298-3.783-75.627c29.15,10.237,56.477,19.687,83.627,29.627
		c2.428,0.888,5.101,4.871,5.265,7.569C256.792,354.982,257.817,380.067,259.14,408.278z"/>
	<path fill-rule="evenodd" clip-rule="evenodd" fill="#07AE96" d="M191.035,270.918c25.707-10.697,48.318-20.204,71.057-29.406
		c2.307-0.93,5.535-0.592,8.031,0.165c22.952,6.96,45.845,14.141,71.938,22.241c-24.955,11.631-46.563,21.97-68.466,31.625
		c-3.646,1.608-8.981,1.367-12.884,0.047C238.512,288.095,216.517,280.019,191.035,270.918z"/>
	<path fill-rule="evenodd" clip-rule="evenodd" fill="#FFFFFF" d="M108.224,462.786c3.851-69.665,7.687-140.458,11.704-211.247
		c4.038-71.277,8.328-142.535,12.398-213.816c1.343-23.606,12.746-35.161,36.292-33.968c66.417,3.374,132.794,7.219,199.168,11.265
		c21.075,1.285,32.174,13.821,31.074,34.628c-3.878,73.735-7.99,147.46-12.184,221.177c-3.942,69.316-7.972,138.633-12.247,207.936
		c-1.499,24.271-14.413,34.905-38.234,33.531c-62.974-3.641-125.954-7.069-188.932-10.425
		C118.721,500.332,108.007,490.11,108.224,462.786z M360.314,433.309c6.667-118.27,13.244-235.078,19.878-352.962
		c-78.168-4.414-154.017-8.698-231.06-13.06c-6.704,118.249-13.325,235.068-20.002,352.816
		C206.772,424.54,282.304,428.85,360.314,433.309z M242.727,487.233c10.182-0.358,19.194-9.328,18.05-19.185
		c-1.28-11.021-7.463-18.09-19.383-17.566c-11.721,0.508-17.749,7.411-17.907,18.895
		C223.34,479.595,232.345,487.588,242.727,487.233z"/>
	<path fill="none" d="M367.999,127.716c-21.798-7.21-43.351-15.183-69.403-24.46c20.963-8.716,39.565-17.154,58.107-24.236
		c-69.926-3.948-138.272-7.811-207.57-11.733c-6.704,118.249-13.325,235.068-20.002,352.816
		c77.642,4.438,153.173,8.747,231.184,13.206c1.165-20.601,2.321-41.109,3.478-61.633c-24.59,11.678-49.458,23.038-76.644,35.593
		c-1.289-27.519-2.65-51.617-3.311-75.73c-0.102-3.747,1.951-9.694,4.737-11.049c25.582-12.421,51.545-24.059,80.193-37.202
		c2.901-51.566,5.804-103.113,8.708-154.741C374.255,128.907,370.812,128.648,367.999,127.716z M366.894,240.585
		c-29.243-9.276-56.428-17.702-83.394-26.788c-2.648-0.889-5.389-5.762-5.587-8.942c-1.622-25.647-2.644-51.33-3.986-79.992
		c29.659,10.425,57.053,19.841,84.191,29.938c2.551,0.953,4.78,6.132,4.992,9.483C364.643,188.84,365.621,213.432,366.894,240.585z"
		/>
	<path fill="none" d="M241.393,450.482c-11.721,0.508-17.749,7.411-17.907,18.895c-0.146,10.218,8.859,18.211,19.24,17.856
		c10.182-0.358,19.194-9.328,18.05-19.185C259.496,457.028,253.313,449.959,241.393,450.482z"/>
	<path fill="#07AE96" d="M358.118,154.801c-27.139-10.097-54.532-19.514-84.191-29.938c1.343,28.663,2.364,54.345,3.986,79.992
		c0.198,3.18,2.938,8.053,5.587,8.942c26.966,9.086,54.15,17.511,83.394,26.788c-1.272-27.153-2.251-51.745-3.783-76.301
		C362.898,160.933,360.669,155.754,358.118,154.801z"/>
	<path fill="#07AE96" d="M283.838,331.538c0.66,24.113,2.021,48.212,3.311,75.73c27.186-12.555,52.054-23.915,76.644-35.593
		c1.661-29.506,3.317-58.973,4.977-88.389c-28.648,13.144-54.611,24.781-80.193,37.202
		C285.789,321.844,283.736,327.791,283.838,331.538z"/>
	<path fill="#07AE96" d="M356.703,79.02c-18.542,7.082-37.145,15.52-58.107,24.236c26.053,9.277,47.605,17.25,69.403,24.46
		c2.813,0.932,6.256,1.19,9.478,0.83c0.907-16.064,1.811-32.104,2.716-48.2C372.335,79.903,364.516,79.46,356.703,79.02z"/>
	<path fill="#FFFFFF" d="M371.992,73.504c-5.126,1.714-10.206,3.574-15.289,5.516c7.813,0.44,15.632,0.884,23.489,1.327
		c-0.905,16.095-1.809,32.136-2.716,48.2c1.776-0.204,3.489-0.535,4.949-1.178c4.188-1.828,8.358-3.699,12.543-5.589
		c0.76-13.981,1.515-27.962,2.263-41.945c-0.414-0.126-0.827-0.253-1.24-0.379C387.984,77.02,378.603,71.298,371.992,73.504z"/>
	<g>
		<g>
			<path fill-rule="evenodd" clip-rule="evenodd" fill="#07AE96" d="M108.224,462.786c3.851-69.665,7.687-140.458,11.704-211.247
				c4.038-71.277,8.328-142.535,12.398-213.816c1.343-23.606,12.746-35.161,36.292-33.968
				c66.417,3.374,132.794,7.219,199.168,11.265c21.075,1.285,32.174,13.821,31.074,34.628c-3.878,73.735-7.99,147.46-12.184,221.177
				c-3.942,69.316-7.972,138.633-12.247,207.936c-1.499,24.271-14.413,34.905-38.234,33.531
				c-62.974-3.641-125.954-7.069-188.932-10.425C118.721,500.332,108.007,490.11,108.224,462.786z M360.314,433.309
				c6.667-118.27,13.244-235.078,19.878-352.962c-78.168-4.414-154.017-8.698-231.06-13.06
				c-6.704,118.249-13.325,235.068-20.002,352.816C206.772,424.54,282.304,428.85,360.314,433.309z M242.727,487.233
				c10.182-0.358,19.194-9.328,18.05-19.185c-1.28-11.021-7.463-18.09-19.383-17.566c-11.721,0.508-17.749,7.411-17.907,18.895
				C223.34,479.595,232.345,487.588,242.727,487.233z"/>
		</g>
	</g>
</g>
</svg>
