<?xml version="1.0" encoding="utf-8"?>
<!-- Generator: Adobe Illustrator 16.0.0, SVG Export Plug-In . SVG Version: 6.00 Build 0)  -->
<!DOCTYPE svg PUBLIC "-//W3C//DTD SVG 1.1//EN" "http://www.w3.org/Graphics/SVG/1.1/DTD/svg11.dtd">
<svg version="1.1" id="Layer_1" xmlns="http://www.w3.org/2000/svg" xmlns:xlink="http://www.w3.org/1999/xlink" x="0px" y="0px"
	 width="512px" height="512px" viewBox="0 0 512 512" enable-background="new 0 0 512 512" xml:space="preserve">
<g>
	<g>
		<path fill="#07AE96" d="M256,0C114.6,0,0,114.6,0,256c0,141.4,114.6,256,256,256c141.4,0,256-114.6,256-256
			C512,114.6,397.4,0,256,0z M400.6,344.4l-138.7,68.8c-1.9,0.9-3.9,1.4-5.9,1.4c-2,0-4-0.5-5.9-1.4l-138.7-68.8
			c-6.6-3.3-9.3-11.2-6-17.8c3.3-6.6,11.2-9.3,17.8-6L256,386.4l132.8-65.8c6.6-3.3,14.5-0.6,17.8,6
			C409.9,333.2,407.2,341.1,400.6,344.4z M400.6,293.9l-138.7,68.8c-1.9,0.9-3.9,1.4-5.9,1.4c-2,0-4-0.5-5.9-1.4l-138.7-68.8
			c-6.6-3.3-9.3-11.2-6-17.8c3.3-6.6,11.2-9.3,17.8-6L256,335.9l132.8-65.8c6.6-3.3,14.5-0.6,17.8,6
			C409.9,282.6,407.2,290.6,400.6,293.9z M400.6,243.3l-138.7,68.8c-1.9,0.9-3.9,1.4-5.9,1.4c-2,0-4-0.5-5.9-1.4l-138.7-68.8
			c-6.6-3.3-9.3-11.2-6-17.8c3.3-6.6,11.2-9.3,17.8-6L256,285.4l132.8-65.8c6.6-3.3,14.5-0.6,17.8,6
			C409.9,232.1,407.2,240.1,400.6,243.3z M400.6,190.3l-138.7,68.8c-1.9,0.9-3.9,1.4-5.9,1.4c-2,0-4-0.5-5.9-1.4l-138.7-68.8
			c-4.5-2.2-7.4-6.9-7.4-11.9c0-5,2.9-9.7,7.4-11.9l138.8-68.8c3.7-1.8,8.1-1.8,11.8,0l138.7,68.8c4.5,2.2,7.4,6.9,7.4,11.9
			C408,183.5,405.2,188.1,400.6,190.3z"/>
	</g>
</g>
</svg>
