<?xml version="1.0" encoding="iso-8859-1"?>
<!-- Generator: Adobe Illustrator 17.1.0, SVG Export Plug-In . SVG Version: 6.00 Build 0)  -->
<!DOCTYPE svg PUBLIC "-//W3C//DTD SVG 1.1//EN" "http://www.w3.org/Graphics/SVG/1.1/DTD/svg11.dtd">
<svg xmlns="http://www.w3.org/2000/svg" xmlns:xlink="http://www.w3.org/1999/xlink" version="1.1" id="Capa_1" x="0px" y="0px" viewBox="0 0 219.496 219.496" style="enable-background:new 0 0 219.496 219.496;" xml:space="preserve" width="512px" height="512px">
<path d="M109.747,0c-0.642,0-1.278,0.007-1.924,0.022C87.11,0.512,67.628,8.991,52.969,23.898  C38.312,38.802,30.154,58.422,30,79.143c-0.167,22.362,9.15,43.906,25.562,59.108c11.398,10.557,17.936,25.206,17.936,40.188v2.306  v17.251c0,11.854,9.645,21.499,21.499,21.499h29.502c11.854,0,21.499-9.645,21.499-21.499v-17.251v-1.463  c0-15.379,6.676-30.464,18.314-41.386c16.006-15.019,25.186-36.212,25.186-58.147C189.498,35.775,153.722,0,109.747,0z   M130.998,197.997c0,3.583-2.915,6.499-6.499,6.499H94.997c-3.584,0-6.499-2.916-6.499-6.499v-9.751h42.5V197.997z M148.375,68.073  l-27.127,43.809v53.032c0,4.142-3.357,7.5-7.5,7.5h-8c-4.143,0-7.5-3.358-7.5-7.5v-53.032L71.121,68.073  c-2.181-3.521-1.093-8.144,2.429-10.325c3.521-2.181,8.144-1.094,10.325,2.428l25.873,41.784l25.873-41.784  c2.183-3.522,6.806-4.609,10.325-2.428C149.468,59.929,150.556,64.552,148.375,68.073z" fill="#07ae96"/>
<g>
</g>
<g>
</g>
<g>
</g>
<g>
</g>
<g>
</g>
<g>
</g>
<g>
</g>
<g>
</g>
<g>
</g>
<g>
</g>
<g>
</g>
<g>
</g>
<g>
</g>
<g>
</g>
<g>
</g>
</svg>
