<?xml version="1.0" encoding="utf-8"?>
<!-- Generator: Adobe Illustrator 16.0.0, SVG Export Plug-In . SVG Version: 6.00 Build 0)  -->
<!DOCTYPE svg PUBLIC "-//W3C//DTD SVG 1.1//EN" "http://www.w3.org/Graphics/SVG/1.1/DTD/svg11.dtd">
<svg version="1.1" id="Layer_1" xmlns="http://www.w3.org/2000/svg" xmlns:xlink="http://www.w3.org/1999/xlink" x="0px" y="0px"
	 width="512px" height="512px" viewBox="0 0 512 512" enable-background="new 0 0 512 512" xml:space="preserve">
<path fill-rule="evenodd" clip-rule="evenodd" fill="#FFFFFF" d="M2284.608,464.505c-3.789-0.116-7.612,0.017-11.348-0.489
	c-1.219-0.165-3.022-1.89-3.179-3.081c-1.416-10.784-1.116-11.021,9.604-11.101c1.642-0.012,3.282-0.215,4.923-0.329
	C2284.608,454.505,2284.608,459.505,2284.608,464.505z"/>
<path fill-rule="evenodd" clip-rule="evenodd" fill="#FFFFFF" d="M2272.385,911.907c3.538,0,5.885,0,9.246,0
	c-1.749,2.196-2.995,3.761-4.507,5.659C2275.619,915.77,2274.388,914.299,2272.385,911.907z"/>
<path fill-rule="evenodd" clip-rule="evenodd" fill="#FFFFFF" d="M2256.907,936.703c0-3.446,0-5.674,0-8.901
	c2.089,1.479,3.682,2.607,5.806,4.111C2260.861,933.44,2259.346,934.691,2256.907,936.703z"/>
<path fill-rule="evenodd" clip-rule="evenodd" fill="#FFFFFF" d="M2277.001,45.516c1.655,2.04,2.847,3.508,4.555,5.614
	c-3.25,0-5.581,0-8.726,0C2274.288,49.168,2275.404,47.664,2277.001,45.516z"/>
<path fill-rule="evenodd" clip-rule="evenodd" fill="#FFFFFF" d="M850.006,735.056c-0.111,0.063-0.297,0.204-0.323,0.179
	c-0.115-0.112-0.187-0.271-0.272-0.413c0.132-0.019,0.277-0.078,0.392-0.041C849.891,734.81,849.939,734.959,850.006,735.056z"/>
<path fill-rule="evenodd" clip-rule="evenodd" fill="#FFFFFF" d="M2230.558,45.257c-0.126-0.042-0.252-0.085-0.377-0.127
	c0.148-0.121,0.284-0.272,0.454-0.348c0.049-0.021,0.193,0.175,0.295,0.271C2230.806,45.121,2230.682,45.188,2230.558,45.257z"/>
<g>
	<path fill-rule="evenodd" clip-rule="evenodd" fill="#07AE96" d="M199.617,299.689c-10.487,8.652-24.015,21.002-35.684,27.915
		c-45.053,26.69-88.865,20.941-115.995-3.85c-19.276-17.614-27.847-72.204-19.636-105.432
		c21.319-86.271,116.215-150.05,213.898-156.246c92.426-5.865,189.86,47.634,226.938,127.53
		c24.231,52.202,28.867,104.742-16.752,149.588c-46.71,45.938-101.947,59.377-160.759,28.51
		C259.091,350.621,231.645,323.838,199.617,299.689z"/>
	<path fill-rule="evenodd" clip-rule="evenodd" fill="#07AE96" d="M24.853,411.074c0-21.705,17.58-39.299,39.286-39.299
		s39.286,17.594,39.286,39.299c0,21.693-17.58,39.287-39.286,39.287S24.853,432.768,24.853,411.074z"/>
</g>
</svg>
