<?xml version="1.0" encoding="iso-8859-1"?>
<!-- Generator: Adobe Illustrator 19.0.0, SVG Export Plug-In . SVG Version: 6.00 Build 0)  -->
<svg xmlns="http://www.w3.org/2000/svg" xmlns:xlink="http://www.w3.org/1999/xlink" version="1.1" id="Layer_1" x="0px" y="0px" viewBox="0 0 512 512" style="enable-background:new 0 0 512 512;" xml:space="preserve" width="512px" height="512px">
<g>
	<g>
		<path d="M495.195,136.123h-33.476V81.225c0-9.281-7.524-16.805-16.805-16.805H67.087c-9.281,0-16.805,7.524-16.805,16.805v54.897    H16.805C7.524,136.123,0,143.647,0,152.928v277.847c0,9.281,7.524,16.805,16.805,16.805h187.023    c8.48,0,15.631-6.318,16.677-14.734l9.383-75.525c1.633-13.151,12.861-23.068,26.112-23.068c13.251,0,24.479,9.917,26.112,23.068    l9.383,75.525c1.046,8.416,8.196,14.734,16.677,14.734h187.021c9.281,0,16.805-7.524,16.805-16.805V152.928    C512,143.647,504.476,136.123,495.195,136.123z M83.892,98.031h344.216v38.092H83.892V98.031z M478.39,413.969H323.018    l-7.552-60.792c-3.721-29.949-29.287-52.534-59.466-52.534s-55.745,22.585-59.466,52.535l-7.552,60.791H33.61V169.733    c24.505,0,420.248,0,444.779,0V413.969z" fill="#FFFFFF"/>
	</g>
</g>
<g>
	<g>
		<path d="M130.595,187.289c-44.479,0-80.665,36.186-80.665,80.665c0,44.479,36.186,80.665,80.665,80.665    s80.665-36.186,80.665-80.665S175.075,187.289,130.595,187.289z M130.595,315.009c-25.946,0-47.055-21.109-47.055-47.055    s21.109-47.055,47.055-47.055c25.946,0,47.055,21.109,47.055,47.055S156.542,315.009,130.595,315.009z" fill="#FFFFFF"/>
	</g>
</g>
<g>
	<g>
		<path d="M381.405,187.289c-44.479,0-80.665,36.186-80.665,80.665c0,44.479,36.186,80.665,80.665,80.665    s80.665-36.186,80.665-80.665S425.884,187.289,381.405,187.289z M381.405,315.009c-25.946,0-47.055-21.109-47.055-47.055    s21.109-47.055,47.055-47.055s47.055,21.109,47.055,47.055S407.351,315.009,381.405,315.009z" fill="#FFFFFF"/>
	</g>
</g>
<g>
</g>
<g>
</g>
<g>
</g>
<g>
</g>
<g>
</g>
<g>
</g>
<g>
</g>
<g>
</g>
<g>
</g>
<g>
</g>
<g>
</g>
<g>
</g>
<g>
</g>
<g>
</g>
<g>
</g>
</svg>
