<?xml version="1.0" encoding="utf-8"?>
<!-- Generator: Adobe Illustrator 16.0.0, SVG Export Plug-In . SVG Version: 6.00 Build 0)  -->
<!DOCTYPE svg PUBLIC "-//W3C//DTD SVG 1.1//EN" "http://www.w3.org/Graphics/SVG/1.1/DTD/svg11.dtd">
<svg version="1.1" id="Layer_1" xmlns="http://www.w3.org/2000/svg" xmlns:xlink="http://www.w3.org/1999/xlink" x="0px" y="0px"
	 width="512px" height="512px" viewBox="0 0 512 512" enable-background="new 0 0 512 512" xml:space="preserve">
<path fill-rule="evenodd" clip-rule="evenodd" fill="#07AE96" d="M462.153,104.467c23.282,0.788,29.144,5.448,28.886,23.462
	c0.494,85.091,0.252,170.188-0.517,255.279c-0.186,20.86-1.559,21.588-22.732,22.478c-43.467,1.824-86.967,3.034-130.468,3.666
	c-4.336,0.063-10.855-4.638-12.755-8.781c-6.218-13.546-9.494-28.512-16.295-41.695c-7.596-14.725-15.954-29.897-27.332-41.626
	c-15.586-16.069-38.687-14.747-53.648,1.979c-8.474,9.471-14.594,21.563-19.747,33.361c-6.899,15.798-11.333,32.663-17.969,48.596
	c-1.597,3.839-7.738,8.331-11.707,8.255c-47.238-0.914-94.454-2.813-141.692-4.001c-10-0.253-14.494-4.149-14.659-14.122
	c-1.202-71.526-0.982-254.694,0.061-274.773c0.439-8.507,3.968-12.678,12.705-13.133C56.705,102.245,389.22,101.998,462.153,104.467
	z M130.215,312.811c38.1,0.032,68.741-30.567,68.593-68.507c-0.148-37.354-30.225-67.536-67.775-68.014
	c-37.858-0.478-69.12,30.098-69.416,67.898C61.315,281.837,92.247,312.78,130.215,312.811z M378.222,312.794
	c38.396,0.12,68.564-29.903,68.537-68.216c-0.027-38.281-30.389-68.516-68.593-68.296c-37.683,0.219-67.506,29.947-67.862,67.651
	C309.936,282.249,339.946,312.673,378.222,312.794z"/>
</svg>
